# xmcd CD database file
#
# Track frame offsets:
#	187
#	21935
#	40910
#	62575
#
# Disc length: 1085 seconds
#
# Revision: 0
# Processed by: cddbd v1.5PL3 Copyright (c) Steve Scherf et al.
# Submitted via: CDex 1.50
#
DISCID=2c043b04
DTITLE=中森明菜 - 原始、女は太陽だった
DYEAR=1995
DGENRE=JPop
TTITLE0=原始、女は太陽だった
TTITLE1=綺麗
TTITLE2=原始、女は太陽だった（Original Karaoke）
TTITLE3=綺麗（Original Karaoke）
EXTD=YEAR: 1995
EXTT0=
EXTT1=
EXTT2=
EXTT3=
PLAYORDER=
